<svg xmlns="http://www.w3.org/2000/svg"  viewBox="0 0 64 64" width="48px" height="48px"><path d="M32,10c13.785,0,25,8.951,25,19.954S45.785,49.907,32,49.907c-0.646,0-1.311-0.022-1.983-0.065	c-7.369,5.504-13.411,6.251-13.672,6.281c-0.076,0.009-0.152,0.013-0.228,0.013c-0.7,0-1.356-0.368-1.72-0.979	c-0.402-0.678-0.369-1.528,0.084-2.172c0.023-0.033,1.966-2.8,4.003-6.234C11.346,43.104,7,36.827,7,29.954	C7,18.951,18.215,10,32,10z M34,39c0-0.601,0-7.399,0-8c0-1.104-0.895-2-2-2c-1.104,0-2,0.896-2,2c0,0.601,0,7.399,0,8	c0,1.104,0.896,2,2,2C33.105,41,34,40.104,34,39z M32,25c1.657,0,3-1.343,3-3s-1.343-3-3-3s-3,1.343-3,3S30.343,25,32,25z"/></svg>