<svg xmlns="http://www.w3.org/2000/svg"  viewBox="0 0 50 50" width="50px" height="50px"><path d="M 47 11 L 26 11 L 26 10 C 26 8.347656 24.652344 7 23 7 L 3 7 C 1.347656 7 0 8.347656 0 10 L 0 42 C 0 43.652344 1.347656 45 3 45 L 9 45 L 9 42 L 13 42 L 13 45 L 37 45 L 37 42 L 41 42 L 41 45 L 47 45 C 48.652344 45 50 43.652344 50 42 L 50 14 C 50 12.347656 48.652344 11 47 11 Z M 6 34 C 6.207031 30.421875 10.984375 30.941406 11.648438 29.085938 C 11.703125 28.449219 11.683594 28.007813 11.683594 27.425781 C 11.40625 27.277344 10.890625 26.316406 10.808594 25.5 C 10.589844 25.484375 10.25 25.261719 10.148438 24.390625 C 10.09375 23.921875 10.308594 23.660156 10.4375 23.578125 C 9.703125 20.632813 10.105469 18.0625 13.464844 18 C 14.304688 18 14.949219 18.234375 15.199219 18.695313 C 17.652344 19.046875 16.914063 22.472656 16.5625 23.578125 C 16.691406 23.660156 16.90625 23.925781 16.851563 24.390625 C 16.753906 25.265625 16.410156 25.484375 16.191406 25.503906 C 16.105469 26.316406 15.613281 27.277344 15.335938 27.429688 C 15.335938 28.007813 15.316406 28.449219 15.371094 29.085938 C 16.035156 30.941406 20.792969 30.421875 21 34 Z M 44 34 L 26 34 L 26 32 L 44 32 Z M 44 29 L 26 29 L 26 27 L 44 27 Z M 44 24 L 26 24 L 26 22 L 44 22 Z"/></svg>